<?xml version="1.0" encoding="utf-8"?>
<!-- Generator: Adobe Illustrator 19.1.0, SVG Export Plug-In . SVG Version: 6.00 Build 0)  -->
<svg version="1.1" id="Layer_1" xmlns="http://www.w3.org/2000/svg" xmlns:xlink="http://www.w3.org/1999/xlink" x="0px" y="0px"
	 viewBox="0 0 36 36" style="enable-background:new 0 0 36 36;" xml:space="preserve">
<style type="text/css">
	.st0{fill:#0D78F2;}
	.st1{fill:#FFFFFF;}
</style>
<circle class="st0" cx="18" cy="18" r="18"/>
<path class="st1" d="M10.2,17.4l7.1-7.1l9.2,9.2c0.4,0.4,0.4,1,0,1.4l-5.7,5.7c-0.4,0.4-1,0.4-1.4,0L10.2,17.4z"/>
<path class="st1" d="M16.5,17.8H11c-0.6,0-1-0.5-1-1V11c0-0.6,0.5-1,1-1h5.5c0.6,0,1,0.5,1,1v5.8C17.5,17.3,17.1,17.8,16.5,17.8z"/>
<circle class="st0" cx="13" cy="13" r="1.5"/>
</svg>
